<svg xmlns="http://www.w3.org/2000/svg" xml:space="preserve" style="fill-rule:evenodd;clip-rule:evenodd;stroke-linecap:round;stroke-linejoin:round;stroke-miterlimit:1.5" viewBox="0 0 100 100"><path d="M99.894 68.44c-1.39 17.796-16.289 31.823-34.439 31.823-18.149 0-33.048-14.027-34.438-31.823h68.877Z" style="fill:#cdc5c5" transform="translate(-44.74 -45.12) scale(1.4474)"/><path d="M30.968 63.722c1.035-18.139 16.092-32.549 34.487-32.549 18.396 0 33.453 14.41 34.488 32.549H30.968Z" style="fill:#a30606" transform="translate(-44.74 -45.12) scale(1.4474)"/><path d="M0 50c0-.97.028-1.933.082-2.89h99.836a51.278 51.278 0 0 1-.071 6.83H.153A50.859 50.859 0 0 1 0 50Z"/><circle cx="59.632" cy="59.632" r="9.632" style="fill:#d4c7c7;stroke:#000;stroke-width:4px" transform="matrix(1.32446 0 0 1.33019 -28.98 -29.322)"/></svg>
